<?xml version="1.0" encoding="UTF-8" standalone="no"?>
<svg
   version="1.2"
   viewBox="0 0 309.29999 186.59412"
   width="309.29999"
   height="186.59412"
   id="svg16"
   xmlns="http://www.w3.org/2000/svg">
  <title id="title2">Logo Ici Orléans</title>
  <style id="style4">
		tspan { white-space:pre } 
		.s0 { fill: #000000 } 
		.s1 { fill: #0064f5 } 
		.s2 { fill: #001ed2 } 
	</style>
  <path
     id="Orléans"
     fill-rule="evenodd"
     class="s0"
     d="m 126.2,180.89411 q -5.5,-5.7 -5.5,-14.1 0,-8.3 5.5,-14 5.5,-5.7 13.7,-5.7 8.1,0 13.6,5.7 5.5,5.7 5.5,14 0,8.4 -5.5,14.1 -5.5,5.6 -13.6,5.6 -8.2,0 -13.7,-5.6 z m 0,-14.1 q 0,6.3 3.9,10.4 3.9,4.1 9.8,4.1 5.8,0 9.7,-4.1 4,-4.1 4,-10.4 0,-6.1 -4,-10.3 -3.9,-4.2 -9.7,-4.2 -5.9,0 -9.8,4.2 -3.9,4.2 -3.9,10.3 z m 53.6,-6.7 v 4.9 q -0.9,-0.2 -1.8,-0.2 -2.3,0 -4.3,1.2 -2,1.1 -3.2,3.1 v 16.9 h -5.2 v -25.7 h 5 v 3 q 1.1,-1.3 3.1,-2.3 2,-1 4.6,-1 1,0 1.8,0.1 z m 10.2,25.9 h -5.2 v -38.9 h 5.2 z m 31.2,-11.7 h -19.9 q 0.3,3.3 2.5,5.5 2.2,2.1 5.5,2.1 4.3,0 7.8,-3.3 l 3,3.2 q -4.2,4.8 -11,4.8 -5.6,0 -9.2,-3.8 -3.6,-3.8 -3.6,-9.6 0,-5.8 3.6,-9.6 3.5,-3.8 9.1,-3.8 5.3,0 8.8,3.8 3.4,3.8 3.4,9.6 0,0.6 0,1.1 z m -12.2,-10 q -2.5,0 -4.5,1.6 -2.1,1.5 -2.7,4 h 14 q -0.5,-2.4 -2.5,-4 -1.9,-1.6 -4.3,-1.6 z m 6.3,-16.3 -5.7,8.2 H 206 l 3.6,-8.2 z m 35.9,38 h -5.1 v -2.3 q -3.2,2.9 -7.9,2.9 -3.6,0 -6.5,-1.7 -3,-1.8 -4.8,-4.8 -1.7,-3.2 -1.7,-6.9 0,-3.8 1.8,-6.9 1.8,-3.2 4.8,-4.9 2.8,-1.6 6.3,-1.6 4.6,0 8,2.9 v -2.4 h 5.1 z m -5.2,-8 v -9.7 q -2.8,-3.7 -7.4,-3.7 -3.6,0 -5.9,2.6 -2.3,2.4 -2.3,5.9 0,3.5 2.4,6.1 2.4,2.4 6.1,2.4 4.3,0 7.1,-3.6 z m 13.3,-17.7 h 5.1 v 2.4 q 3.1,-3 7.7,-3 5.8,0 9.4,4.6 2.5,3.1 2.5,9.1 v 12.6 h -5.2 v -12.9 q 0,-4 -1.6,-5.9 -1.9,-2.6 -5.3,-2.6 -4.4,0 -7.4,3.7 v 17.7 h -5.2 z m 50,18.5 q 0,3.5 -2.8,5.6 -2.9,2.2 -6.8,2.2 -6,0 -10.4,-3.6 l 2.7,-3.5 q 3.6,2.5 7.6,2.5 1.8,0 3.1,-0.8 1.4,-1 1.4,-2.4 0,-1.4 -1.5,-2.2 -1.4,-0.8 -3.4,-1.3 -2,-0.5 -4.1,-1.2 -2,-0.7 -3.5,-2.4 -1.4,-1.6 -1.4,-4.2 0,-3.8 2.8,-5.7 2.8,-2 6.7,-2 4.9,0 8.5,2.8 l -2.5,3.6 q -2.7,-1.9 -5.7,-1.9 -2,0 -3.3,0.9 -1.3,0.8 -1.3,2.3 0,1.2 1.4,2 1.5,0.7 3.5,1.3 2.1,0.4 4.1,1.2 2,0.8 3.4,2.5 1.5,1.7 1.5,4.3 z" />
  <g
     id="ici"
     transform="translate(0,-0.7)">
    <path
       fill-rule="evenodd"
       class="s0"
       d="M 170.1,0.7 V 24.5 H 143.9 V 0.7 Z m 22.5,115.2 c -8.7,-8.7 -13,-20.5 -13,-35.5 0,-14.8 4.5,-26.6 13.4,-35.4 8.9,-8.9 20.8,-13.3 35.9,-13.3 12.6,0 23,3.2 30.9,9.8 7.9,6.5 12.7,15.4 14.6,26.9 H 247.3 C 245.1,58.7 238.5,53 228.5,53 c -6.7,0 -12.2,2.6 -16.2,7.6 -4,5.1 -6.1,11.7 -6.1,19.8 0,8.1 2.1,14.8 6.1,19.8 q 1.4,1.8 3.3,3.2 1.8,1.5 3.9,2.5 2.1,1 4.4,1.4 2.3,0.5 4.6,0.5 c 10.1,0 17,-6 18.8,-15.7 h 27.3 c -1.9,11.4 -6.9,20.4 -15,27 -8.3,6.6 -18.8,9.9 -31.6,9.9 -15.1,0 -26.9,-4.3 -35.4,-13.1 z M 143.9,32.8 h 26.2 v 95.1 h -26.2 z m 139.2,0 h 26.2 v 95.1 H 283.1 Z M 309.2,0.7 V 24.5 H 283 V 0.7 Z"
       id="path7" />
    <path
       class="s1"
       d="M 64,129.4 C 28.6,129.4 0,100.7 0,65.1 0,29.6 28.6,0.9 64,0.9 c 35.4,0 64,28.7 64,64.2 0,35.6 -28.6,64.3 -64,64.3 z"
       id="path9" />
    <path
       class="s0"
       d="m 64,65.1 v 64.3 H 0 V 65.1 Z"
       id="path11" />
    <path
       fill-rule="evenodd"
       class="s2"
       d="M 63.9,129.4 H 64 V 65.1 H 0 c 0,35.5 28.6,64.2 63.9,64.3 z"
       id="path13" />
  </g>
</svg>
